PathFileType	4	(X/Y/Z)	c:/Users/goper/Files/vsCode/490R/osim_files/C12/C12_Slow_04.trc
DataRate	CameraRate	NumFrames	NumMarkers	Units                	OrigDataRate	OrigDataStartFrame	OrigNumFrames
120.00	120.00	4	36	mm	120.0	621	1655
                Frame#	Time	LPSIS			LASIS			LTH1			LTH2			LTH3			LTH4			LLFE			LMFE			LSH1			LSH2			LSH3			LSH4			LLMAL			LMMAL			LCAL			LMTP5			LTOE			LMTP1			RPSIS			RASIS			RTH1			RTH2			RTH3			RTH4			RLFE			RMFE			RSH1			RSH2			RSH3			RSH4			RLMAL			RMMAL			RCAL			RMTP1			RTOE			RMTP5		
		X1	Y1	Z1	X2	Y2	Z2	X3	Y3	Z3	X4	Y4	Z4	X5	Y5	Z5	X6	Y6	Z6	X7	Y7	Z7	X8	Y8	Z8	X9	Y9	Z9	X10	Y10	Z10	X11	Y11	Z11	X12	Y12	Z12	X13	Y13	Z13	X14	Y14	Z14	X15	Y15	Z15	X16	Y16	Z16	X17	Y17	Z17	X18	Y18	Z18	X19	Y19	Z19	X20	Y20	Z20	X21	Y21	Z21	X22	Y22	Z22	X23	Y23	Z23	X24	Y24	Z24	X25	Y25	Z25	X26	Y26	Z26	X27	Y27	Z27	X28	Y28	Z28	X29	Y29	Z29	X30	Y30	Z30	X31	Y31	Z31	X32	Y32	Z32	X33	Y33	Z33	X34	Y34	Z34	X35	Y35	Z35	X36	Y36	Z36

621	5.16667	647.38000	1066.70764	336.06467	471.95410	1028.23108	389.13794	483.43024	746.35785	454.63437	462.80646	707.85919	453.30603	427.13425	772.04169	460.58398	412.48093	729.34418	458.58563	361.25458	557.16809	418.11185	354.29990	550.61688	290.88831	409.69720	461.43155	436.56940	405.70581	413.91513	444.18930	349.17462	460.80597	433.17087	353.92911	413.79968	439.64682	369.87256	115.62386	410.54184	354.93832	122.80502	331.59042	427.75955	86.22066	366.86081	234.73907	58.63701	435.37888	185.68794	97.29211	369.46970	211.86902	64.28822	328.30518	658.44482	1067.15100	222.93246	479.28842	1030.00293	132.79074	610.54095	751.05792	95.05366	610.80951	705.97107	104.71893	547.99878	742.30243	96.39481	557.48517	695.68475	104.43076	633.05060	527.73431	149.90286	628.11536	532.84924	282.77734	707.67798	439.86975	132.80730	711.53125	396.56564	128.01215	646.02618	425.42749	140.74242	660.60132	385.44257	133.41859	738.24945	108.23508	185.59639	723.22516	121.24316	268.52322	814.59106	76.65662	224.39095	601.31104	40.97097	268.43896	558.82764	59.54432	237.31613	594.76520	36.03725	161.56308
622	5.17500	638.38684	1064.88782	337.12936	462.10699	1026.41016	389.18198	475.00803	743.73407	454.21072	454.90698	704.83942	452.53015	419.17303	769.06299	460.00128	404.57236	726.31287	457.51093	352.83673	554.79004	416.48077	346.94949	547.87653	288.86877	397.25616	457.53195	435.60458	391.10199	410.45911	443.39835	336.94025	459.85825	431.68500	339.42001	412.73328	438.40002	340.70157	113.80628	411.19247	326.72803	121.32655	331.97980	397.48080	81.49692	367.89886	202.92061	62.98650	434.94965	156.04353	103.94014	369.11118	180.69817	69.70236	328.17249	649.78979	1065.86279	223.97000	470.97726	1028.19617	133.08397	605.08350	750.43896	95.67982	606.07355	705.54034	105.00279	542.80408	741.28491	96.72985	552.50067	694.61798	105.00637	629.46753	527.31952	150.45549	624.84143	532.26215	283.22672	704.82159	439.86633	133.18301	709.04083	396.65707	128.44516	643.69440	425.15201	140.99438	658.11841	385.19128	134.00964	737.78290	108.57332	186.03439	722.81903	121.33031	268.91949	814.42706	77.17462	224.68185	601.16077	40.85563	268.48041	558.50494	59.32445	237.32895	594.75128	36.05939	161.64110
623	5.18333	629.36743	1062.98706	338.17010	453.14609	1024.04175	389.68604	467.30286	740.74176	453.91000	447.42734	701.79492	451.78333	410.97675	765.49615	459.32657	397.01746	723.11310	456.78162	344.94629	552.26562	415.05209	338.71866	545.26874	286.55875	385.08987	453.58905	434.84833	376.80579	406.95166	442.69687	325.08383	458.86090	430.26166	326.03134	412.76138	438.35623	312.28955	112.88477	411.51685	298.27341	120.46873	332.90009	367.58093	77.66637	368.69019	172.07709	68.59650	434.75363	127.38396	111.35339	368.48108	150.58669	75.96364	327.87192	641.06427	1064.50830	225.10036	462.75314	1026.40625	133.31102	599.63837	749.88409	96.26253	600.96802	704.98828	105.88213	537.36005	740.13220	97.38372	548.43115	694.04865	104.94988	626.09399	527.12866	150.81842	621.48602	531.72510	283.65781	702.14429	440.07806	133.45132	706.64398	396.84491	128.81502	640.71796	424.95956	141.71532	655.75848	385.08969	134.49870	737.40118	109.02048	186.37527	722.29553	121.47806	269.38336	814.03894	77.53623	225.15393	601.14471	40.70822	268.54489	558.31653	59.18202	237.38689	594.73065	36.08582	161.67719
624	5.19167	620.16431	1061.01477	339.34949	443.52725	1021.68237	389.91690	459.79492	737.64539	453.69388	440.05884	698.55237	451.30643	403.43201	762.31049	459.08340	389.62085	719.67358	456.09985	336.63364	549.60321	413.76562	332.32532	542.18896	284.80243	373.60461	449.35068	432.61481	362.65631	403.60956	441.94537	314.04410	458.48990	429.67944	312.21323	411.68048	437.37582	284.42874	112.82716	411.63940	271.19360	120.77043	332.81738	338.05472	74.64370	369.13211	142.24225	75.25949	434.44421	99.55403	119.87843	367.97641	121.69841	83.08812	327.42001	632.21265	1062.95801	226.25624	454.30273	1024.70593	133.55730	594.13098	749.42902	96.80778	597.53992	705.46680	105.18730	531.97784	739.00458	97.79756	542.69110	692.72058	106.01689	622.82477	526.96204	151.07710	617.91351	531.17108	283.89474	699.47791	440.37134	133.84077	704.21545	397.19257	129.15773	638.36951	424.97864	141.86819	653.39972	385.08417	134.80351	737.02399	109.53829	186.67241	721.84113	121.69475	269.70102	813.65161	78.12888	225.56108	601.08655	40.55516	268.61615	558.13531	58.93235	237.47635	594.44385	36.24512	161.57179
